<svg width="16" height="17" viewBox="0 0 16 17" fill="none" xmlns="http://www.w3.org/2000/svg">
<g clip-path="url(#clip0_179541_13)">
<path d="M14.189 13.3937C13.8521 12.5958 13.3633 11.871 12.7497 11.2598C12.138 10.6468 11.4133 10.158 10.6158 9.8205C10.6086 9.81693 10.6015 9.81515 10.5943 9.81158C11.7068 9.008 12.4301 7.69908 12.4301 6.22229C12.4301 3.77586 10.4479 1.79372 8.00149 1.79372C5.55506 1.79372 3.57291 3.77586 3.57291 6.22229C3.57291 7.69908 4.29613 9.008 5.40863 9.81336C5.40148 9.81693 5.39434 9.81872 5.3872 9.82229C4.5872 10.1598 3.86934 10.6437 3.25327 11.2616C2.64025 11.8733 2.15149 12.598 1.81399 13.3955C1.48242 14.1763 1.3036 15.0134 1.2872 15.8616C1.28672 15.8806 1.29007 15.8996 1.29703 15.9173C1.304 15.9351 1.31444 15.9513 1.32776 15.9649C1.34107 15.9786 1.35698 15.9894 1.37455 15.9968C1.39212 16.0042 1.41099 16.008 1.43006 16.008H2.50149C2.58006 16.008 2.64256 15.9455 2.64434 15.8687C2.68006 14.4901 3.23363 13.1991 4.2122 12.2205C5.2247 11.208 6.56934 10.6509 8.00149 10.6509C9.43363 10.6509 10.7783 11.208 11.7908 12.2205C12.7693 13.1991 13.3229 14.4901 13.3586 15.8687C13.3604 15.9473 13.4229 16.008 13.5015 16.008H14.5729C14.592 16.008 14.6109 16.0042 14.6284 15.9968C14.646 15.9894 14.6619 15.9786 14.6752 15.9649C14.6885 15.9513 14.699 15.9351 14.7059 15.9173C14.7129 15.8996 14.7162 15.8806 14.7158 15.8616C14.6979 15.008 14.5211 14.1776 14.189 13.3937ZM8.00149 9.29372C7.18184 9.29372 6.41041 8.97408 5.83006 8.39372C5.2497 7.81336 4.93006 7.04193 4.93006 6.22229C4.93006 5.40265 5.2497 4.63122 5.83006 4.05086C6.41041 3.4705 7.18184 3.15086 8.00149 3.15086C8.82113 3.15086 9.59256 3.4705 10.1729 4.05086C10.7533 4.63122 11.0729 5.40265 11.0729 6.22229C11.0729 7.04193 10.7533 7.81336 10.1729 8.39372C9.59256 8.97408 8.82113 9.29372 8.00149 9.29372Z" fill="#1890FF"/>
</g>
<defs>
<clipPath id="clip0_179541_13">
<rect width="16" height="16" fill="white" transform="translate(0 0.899994)"/>
</clipPath>
</defs>
</svg>
