<svg width="16" height="17" viewBox="0 0 16 17" fill="none" xmlns="http://www.w3.org/2000/svg">
<g clip-path="url(#clip0_179541_102)">
<path d="M12.1444 0.864059H3.85868C3.22832 0.864059 2.71582 1.37656 2.71582 2.00692V15.7212C2.71582 16.3516 3.22832 16.8641 3.85868 16.8641H12.1444C12.7747 16.8641 13.2872 16.3516 13.2872 15.7212V2.00692C13.2872 1.37656 12.7747 0.864059 12.1444 0.864059ZM12.0015 15.5783H4.00153V2.14977H12.0015V15.5783ZM7.28725 13.7569C7.28725 13.9464 7.3625 14.128 7.49646 14.262C7.63041 14.3959 7.81209 14.4712 8.00153 14.4712C8.19098 14.4712 8.37266 14.3959 8.50661 14.262C8.64057 14.128 8.71582 13.9464 8.71582 13.7569C8.71582 13.5675 8.64057 13.3858 8.50661 13.2518C8.37266 13.1179 8.19098 13.0426 8.00153 13.0426C7.81209 13.0426 7.63041 13.1179 7.49646 13.2518C7.3625 13.3858 7.28725 13.5675 7.28725 13.7569Z" fill="#1890FF"/>
</g>
<defs>
<clipPath id="clip0_179541_102">
<rect width="16" height="16" fill="white" transform="translate(0 0.899994)"/>
</clipPath>
</defs>
</svg>
