<svg width="16" height="17" viewBox="0 0 16 17" fill="none" xmlns="http://www.w3.org/2000/svg">
<g clip-path="url(#clip0_179541_7)">
<path d="M13.7163 8.04806H12.5021V4.04806C12.5021 2.78556 11.4788 1.76234 10.2163 1.76234H5.78777C4.52527 1.76234 3.50205 2.78556 3.50205 4.04806V8.04806H2.28777C1.9717 8.04806 1.71634 8.30341 1.71634 8.61949V15.4766C1.71634 15.7927 1.9717 16.0481 2.28777 16.0481H13.7163C14.0324 16.0481 14.2878 15.7927 14.2878 15.4766V8.61949C14.2878 8.30341 14.0324 8.04806 13.7163 8.04806ZM4.78777 4.04806C4.78777 3.49627 5.23598 3.04806 5.78777 3.04806H10.2163C10.7681 3.04806 11.2163 3.49627 11.2163 4.04806V8.04806H4.78777V4.04806ZM13.0021 14.7623H3.00205V9.33377H13.0021V14.7623ZM7.50205 12.2802V13.2266C7.50205 13.3052 7.56634 13.3695 7.64491 13.3695H8.3592C8.43777 13.3695 8.50205 13.3052 8.50205 13.2266V12.2802C8.64946 12.1744 8.75948 12.0245 8.81629 11.8522C8.87309 11.6798 8.87375 11.4939 8.81816 11.3212C8.76257 11.1484 8.65361 10.9978 8.50695 10.8909C8.3603 10.784 8.18352 10.7265 8.00205 10.7265C7.82059 10.7265 7.64381 10.784 7.49716 10.8909C7.3505 10.9978 7.24154 11.1484 7.18595 11.3212C7.13036 11.4939 7.13102 11.6798 7.18782 11.8522C7.24463 12.0245 7.35465 12.1744 7.50205 12.2802Z" fill="#1890FF"/>
</g>
<defs>
<clipPath id="clip0_179541_7">
<rect width="16" height="16" fill="white" transform="translate(0 0.899994)"/>
</clipPath>
</defs>
</svg>
