<svg width="24" height="24" viewBox="0 0 24 24" fill="none" xmlns="http://www.w3.org/2000/svg">
<path d="M12.0019 4.81799C13.2171 3.75073 14.7998 3.19805 16.4152 3.27686C18.0306 3.35567 19.552 4.0598 20.6575 5.24029C21.763 6.42078 22.366 7.98503 22.3388 9.60212C22.3116 11.2192 21.6565 12.7623 20.5119 13.905L15.2869 19.13L11.9999 22.415L4.71989 15.136L3.48989 13.904C2.34566 12.7612 1.69085 11.218 1.66395 9.60107C1.63705 7.98409 2.24017 6.42005 3.34575 5.23978C4.45133 4.05951 5.97265 3.35557 7.58794 3.27685C9.20322 3.19814 10.7868 3.75082 12.0019 4.81799Z" fill="black"/>
</svg>
