<svg width="14" height="14" viewBox="0 0 14 14" fill="none" xmlns="http://www.w3.org/2000/svg">
<rect width="14" height="14" fill="white"/>
<path d="M12.7498 0.254608H1.24976C0.973193 0.254608 0.749756 0.478046 0.749756 0.754608V12.2546C0.749756 12.5312 0.973193 12.7546 1.24976 12.7546H12.7498C13.0263 12.7546 13.2498 12.5312 13.2498 12.2546V0.754608C13.2498 0.478046 13.0263 0.254608 12.7498 0.254608ZM12.1248 11.6296H1.87476V1.37961H12.1248V11.6296ZM6.68726 4.75461H9.56226C9.63101 4.75461 9.68726 4.69836 9.68726 4.62961V3.87961C9.68726 3.81086 9.63101 3.75461 9.56226 3.75461H6.68726C6.61851 3.75461 6.56226 3.81086 6.56226 3.87961V4.62961C6.56226 4.69836 6.61851 4.75461 6.68726 4.75461ZM6.68726 7.00461H9.56226C9.63101 7.00461 9.68726 6.94836 9.68726 6.87961V6.12961C9.68726 6.06086 9.63101 6.00461 9.56226 6.00461H6.68726C6.61851 6.00461 6.56226 6.06086 6.56226 6.12961V6.87961C6.56226 6.94836 6.61851 7.00461 6.68726 7.00461ZM6.68726 9.25461H9.56226C9.63101 9.25461 9.68726 9.19836 9.68726 9.12961V8.37961C9.68726 8.31086 9.63101 8.25461 9.56226 8.25461H6.68726C6.61851 8.25461 6.56226 8.31086 6.56226 8.37961V9.12961C6.56226 9.19836 6.61851 9.25461 6.68726 9.25461ZM4.31226 4.25461C4.31226 4.42037 4.3781 4.57934 4.49531 4.69655C4.61252 4.81376 4.7715 4.87961 4.93726 4.87961C5.10302 4.87961 5.26199 4.81376 5.3792 4.69655C5.49641 4.57934 5.56226 4.42037 5.56226 4.25461C5.56226 4.08885 5.49641 3.92988 5.3792 3.81267C5.26199 3.69546 5.10302 3.62961 4.93726 3.62961C4.7715 3.62961 4.61252 3.69546 4.49531 3.81267C4.3781 3.92988 4.31226 4.08885 4.31226 4.25461ZM4.31226 6.50461C4.31226 6.67037 4.3781 6.82934 4.49531 6.94655C4.61252 7.06376 4.7715 7.12961 4.93726 7.12961C5.10302 7.12961 5.26199 7.06376 5.3792 6.94655C5.49641 6.82934 5.56226 6.67037 5.56226 6.50461C5.56226 6.33885 5.49641 6.17988 5.3792 6.06267C5.26199 5.94546 5.10302 5.87961 4.93726 5.87961C4.7715 5.87961 4.61252 5.94546 4.49531 6.06267C4.3781 6.17988 4.31226 6.33885 4.31226 6.50461ZM4.31226 8.75461C4.31226 8.92037 4.3781 9.07934 4.49531 9.19655C4.61252 9.31376 4.7715 9.37961 4.93726 9.37961C5.10302 9.37961 5.26199 9.31376 5.3792 9.19655C5.49641 9.07934 5.56226 8.92037 5.56226 8.75461C5.56226 8.58885 5.49641 8.42988 5.3792 8.31267C5.26199 8.19546 5.10302 8.12961 4.93726 8.12961C4.7715 8.12961 4.61252 8.19546 4.49531 8.31267C4.3781 8.42988 4.31226 8.58885 4.31226 8.75461Z" fill="black"/>
</svg>
